<?xml version="1.0" encoding="utf-8" standalone="no"?>
<!DOCTYPE svg PUBLIC "-//W3C//DTD SVG 1.1//EN"
  "http://www.w3.org/Graphics/SVG/1.1/DTD/svg11.dtd">
<svg xmlns:xlink="http://www.w3.org/1999/xlink" width="1080pt" height="720pt" viewBox="0 0 1080 720" xmlns="http://www.w3.org/2000/svg" version="1.1">
 <metadata>
  <rdf:RDF xmlns:dc="http://purl.org/dc/elements/1.1/" xmlns:cc="http://creativecommons.org/ns#" xmlns:rdf="http://www.w3.org/1999/02/22-rdf-syntax-ns#">
   <cc:Work>
    <dc:type rdf:resource="http://purl.org/dc/dcmitype/StillImage"/>
    <dc:date>2023-04-30T15:09:13.861189</dc:date>
    <dc:format>image/svg+xml</dc:format>
    <dc:creator>
     <cc:Agent>
      <dc:title>Matplotlib v3.7.1, https://matplotlib.org/</dc:title>
     </cc:Agent>
    </dc:creator>
   </cc:Work>
  </rdf:RDF>
 </metadata>
 <defs>
  <style type="text/css">*{stroke-linejoin: round; stroke-linecap: butt}</style>
 </defs>
 <g id="figure_1">
  <g id="patch_1">
   <path d="M 0 720 
L 1080 720 
L 1080 0 
L 0 0 
z
" style="fill: #ffffff"/>
  </g>
  <g id="axes_1">
   <g id="patch_2">
    <path d="M 99.09 635.94 
L 1054.08 635.94 
L 1054.08 25.92 
L 99.09 25.92 
z
" style="fill: #ffffff"/>
   </g>
   <g id="matplotlib.axis_1">
    <g id="xtick_1">
     <g id="line2d_1">
      <defs>
       <path id="me767b3beec" d="M 0 0 
L 0 6 
" style="stroke: #262626; stroke-width: 1.25"/>
      </defs>
      <g>
       <use xlink:href="#me767b3beec" x="142.498636" y="635.94" style="fill: #262626; stroke: #262626; stroke-width: 1.25"/>
      </g>
     </g>
     <g id="text_1">
      <!-- 33 -->
      <g style="fill: #262626" transform="translate(128.511449 662.156562) scale(0.22 -0.22)">
       <defs>
        <path id="Verdana-33" d="M 3244 2241 
Q 3394 2106 3491 1903 
Q 3588 1700 3588 1378 
Q 3588 1059 3472 793 
Q 3356 528 3147 331 
Q 2913 113 2595 8 
Q 2278 -97 1900 -97 
Q 1513 -97 1138 -4 
Q 763 88 522 197 
L 522 850 
L 569 850 
Q 834 675 1193 559 
Q 1553 444 1888 444 
Q 2084 444 2306 509 
Q 2528 575 2666 703 
Q 2809 841 2879 1006 
Q 2950 1172 2950 1425 
Q 2950 1675 2870 1839 
Q 2791 2003 2650 2097 
Q 2509 2194 2309 2230 
Q 2109 2266 1878 2266 
L 1597 2266 
L 1597 2784 
L 1816 2784 
Q 2291 2784 2573 2982 
Q 2856 3181 2856 3563 
Q 2856 3731 2784 3857 
Q 2713 3984 2584 4066 
Q 2450 4147 2297 4178 
Q 2144 4209 1950 4209 
Q 1653 4209 1318 4103 
Q 984 3997 688 3803 
L 656 3803 
L 656 4456 
Q 878 4566 1248 4658 
Q 1619 4750 1966 4750 
Q 2306 4750 2565 4687 
Q 2825 4625 3034 4488 
Q 3259 4338 3375 4125 
Q 3491 3913 3491 3628 
Q 3491 3241 3217 2952 
Q 2944 2663 2572 2588 
L 2572 2544 
Q 2722 2519 2915 2439 
Q 3109 2359 3244 2241 
z
" transform="scale(0.015625)"/>
       </defs>
       <use xlink:href="#Verdana-33"/>
       <use xlink:href="#Verdana-33" x="63.574219"/>
      </g>
     </g>
    </g>
    <g id="xtick_2">
     <g id="line2d_2">
      <g>
       <use xlink:href="#me767b3beec" x="268.643392" y="635.94" style="fill: #262626; stroke: #262626; stroke-width: 1.25"/>
      </g>
     </g>
     <g id="text_2">
      <!-- 50 -->
      <g style="fill: #262626" transform="translate(254.656204 662.156562) scale(0.22 -0.22)">
       <defs>
        <path id="Verdana-35" d="M 3616 1478 
Q 3616 1153 3497 856 
Q 3378 559 3172 356 
Q 2947 138 2636 20 
Q 2325 -97 1916 -97 
Q 1534 -97 1181 -17 
Q 828 63 584 175 
L 584 834 
L 628 834 
Q 884 672 1228 558 
Q 1572 444 1903 444 
Q 2125 444 2333 506 
Q 2541 569 2703 725 
Q 2841 859 2911 1046 
Q 2981 1234 2981 1481 
Q 2981 1722 2898 1887 
Q 2816 2053 2669 2153 
Q 2506 2272 2273 2320 
Q 2041 2369 1753 2369 
Q 1478 2369 1223 2331 
Q 969 2294 784 2256 
L 784 4653 
L 3584 4653 
L 3584 4106 
L 1388 4106 
L 1388 2869 
Q 1522 2881 1662 2887 
Q 1803 2894 1906 2894 
Q 2284 2894 2568 2830 
Q 2853 2766 3091 2603 
Q 3341 2431 3478 2159 
Q 3616 1888 3616 1478 
z
" transform="scale(0.015625)"/>
        <path id="Verdana-30" d="M 3647 2328 
Q 3647 1075 3255 489 
Q 2863 -97 2038 -97 
Q 1200 -97 814 497 
Q 428 1091 428 2322 
Q 428 3563 818 4155 
Q 1209 4747 2038 4747 
Q 2875 4747 3261 4145 
Q 3647 3544 3647 2328 
z
M 2825 909 
Q 2934 1163 2973 1505 
Q 3013 1847 3013 2328 
Q 3013 2803 2973 3153 
Q 2934 3503 2822 3747 
Q 2713 3988 2523 4109 
Q 2334 4231 2038 4231 
Q 1744 4231 1551 4109 
Q 1359 3988 1247 3741 
Q 1141 3509 1102 3137 
Q 1063 2766 1063 2322 
Q 1063 1834 1097 1506 
Q 1131 1178 1244 919 
Q 1347 675 1536 547 
Q 1725 419 2038 419 
Q 2331 419 2525 541 
Q 2719 663 2825 909 
z
" transform="scale(0.015625)"/>
       </defs>
       <use xlink:href="#Verdana-35"/>
       <use xlink:href="#Verdana-30" x="63.574219"/>
      </g>
     </g>
    </g>
    <g id="xtick_3">
     <g id="line2d_3">
      <g>
       <use xlink:href="#me767b3beec" x="394.788147" y="635.94" style="fill: #262626; stroke: #262626; stroke-width: 1.25"/>
      </g>
     </g>
     <g id="text_3">
      <!-- 67 -->
      <g style="fill: #262626" transform="translate(380.800959 662.156562) scale(0.22 -0.22)">
       <defs>
        <path id="Verdana-36" d="M 3722 1509 
Q 3722 800 3255 351 
Q 2788 -97 2109 -97 
Q 1766 -97 1484 9 
Q 1203 116 988 325 
Q 719 584 573 1012 
Q 428 1441 428 2044 
Q 428 2663 561 3141 
Q 694 3619 984 3991 
Q 1259 4344 1693 4542 
Q 2128 4741 2706 4741 
Q 2891 4741 3016 4725 
Q 3141 4709 3269 4669 
L 3269 4072 
L 3238 4072 
Q 3150 4119 2973 4161 
Q 2797 4203 2613 4203 
Q 1941 4203 1541 3783 
Q 1141 3363 1075 2647 
Q 1338 2806 1592 2889 
Q 1847 2972 2181 2972 
Q 2478 2972 2704 2917 
Q 2931 2863 3169 2697 
Q 3444 2506 3583 2215 
Q 3722 1925 3722 1509 
z
M 3088 1484 
Q 3088 1775 3002 1965 
Q 2916 2156 2719 2297 
Q 2575 2397 2400 2428 
Q 2225 2459 2034 2459 
Q 1769 2459 1541 2396 
Q 1313 2334 1072 2203 
Q 1066 2134 1062 2070 
Q 1059 2006 1059 1909 
Q 1059 1416 1161 1130 
Q 1263 844 1441 678 
Q 1584 541 1751 477 
Q 1919 413 2116 413 
Q 2569 413 2828 689 
Q 3088 966 3088 1484 
z
" transform="scale(0.015625)"/>
        <path id="Verdana-37" d="M 3666 3956 
L 1559 0 
L 891 0 
L 3131 4106 
L 481 4106 
L 481 4653 
L 3666 4653 
L 3666 3956 
z
" transform="scale(0.015625)"/>
       </defs>
       <use xlink:href="#Verdana-36"/>
       <use xlink:href="#Verdana-37" x="63.574219"/>
      </g>
     </g>
    </g>
    <g id="xtick_4">
     <g id="line2d_4">
      <g>
       <use xlink:href="#me767b3beec" x="513.512622" y="635.94" style="fill: #262626; stroke: #262626; stroke-width: 1.25"/>
      </g>
     </g>
     <g id="text_4">
      <!-- 83 -->
      <g style="fill: #262626" transform="translate(499.525435 662.156562) scale(0.22 -0.22)">
       <defs>
        <path id="Verdana-38" d="M 3688 1297 
Q 3688 694 3217 294 
Q 2747 -106 2034 -106 
Q 1278 -106 829 284 
Q 381 675 381 1284 
Q 381 1672 606 1986 
Q 831 2300 1241 2484 
L 1241 2503 
Q 866 2703 686 2940 
Q 506 3178 506 3534 
Q 506 4059 937 4409 
Q 1369 4759 2034 4759 
Q 2731 4759 3147 4425 
Q 3563 4091 3563 3575 
Q 3563 3259 3366 2954 
Q 3169 2650 2788 2478 
L 2788 2459 
Q 3225 2272 3456 1997 
Q 3688 1722 3688 1297 
z
M 2947 3569 
Q 2947 3903 2689 4101 
Q 2431 4300 2031 4300 
Q 1638 4300 1386 4112 
Q 1134 3925 1134 3606 
Q 1134 3381 1261 3217 
Q 1388 3053 1644 2925 
Q 1759 2869 1976 2778 
Q 2194 2688 2400 2628 
Q 2709 2834 2828 3056 
Q 2947 3278 2947 3569 
z
M 3044 1238 
Q 3044 1525 2917 1698 
Q 2791 1872 2422 2047 
Q 2275 2116 2100 2175 
Q 1925 2234 1634 2341 
Q 1353 2188 1183 1925 
Q 1013 1663 1013 1331 
Q 1013 909 1303 634 
Q 1594 359 2041 359 
Q 2497 359 2770 593 
Q 3044 828 3044 1238 
z
" transform="scale(0.015625)"/>
       </defs>
       <use xlink:href="#Verdana-38"/>
       <use xlink:href="#Verdana-33" x="63.574219"/>
      </g>
     </g>
    </g>
    <g id="xtick_5">
     <g id="line2d_5">
      <g>
       <use xlink:href="#me767b3beec" x="639.657378" y="635.94" style="fill: #262626; stroke: #262626; stroke-width: 1.25"/>
      </g>
     </g>
     <g id="text_5">
      <!-- 100 -->
      <g style="fill: #262626" transform="translate(618.676596 662.156562) scale(0.22 -0.22)">
       <defs>
        <path id="Verdana-31" d="M 3388 0 
L 869 0 
L 869 475 
L 1838 475 
L 1838 3594 
L 869 3594 
L 869 4019 
Q 1066 4019 1291 4051 
Q 1516 4084 1631 4147 
Q 1775 4225 1858 4345 
Q 1941 4466 1953 4669 
L 2438 4669 
L 2438 475 
L 3388 475 
L 3388 0 
z
" transform="scale(0.015625)"/>
       </defs>
       <use xlink:href="#Verdana-31"/>
       <use xlink:href="#Verdana-30" x="63.574219"/>
       <use xlink:href="#Verdana-30" x="127.148438"/>
      </g>
     </g>
    </g>
    <g id="xtick_6">
     <g id="line2d_6">
      <g>
       <use xlink:href="#me767b3beec" x="765.802133" y="635.94" style="fill: #262626; stroke: #262626; stroke-width: 1.25"/>
      </g>
     </g>
     <g id="text_6">
      <!-- 117 -->
      <g style="fill: #262626" transform="translate(744.821352 662.156562) scale(0.22 -0.22)">
       <use xlink:href="#Verdana-31"/>
       <use xlink:href="#Verdana-31" x="63.574219"/>
       <use xlink:href="#Verdana-37" x="127.148438"/>
      </g>
     </g>
    </g>
    <g id="xtick_7">
     <g id="line2d_7">
      <g>
       <use xlink:href="#me767b3beec" x="884.526608" y="635.94" style="fill: #262626; stroke: #262626; stroke-width: 1.25"/>
      </g>
     </g>
     <g id="text_7">
      <!-- 133 -->
      <g style="fill: #262626" transform="translate(863.545827 662.156562) scale(0.22 -0.22)">
       <use xlink:href="#Verdana-31"/>
       <use xlink:href="#Verdana-33" x="63.574219"/>
       <use xlink:href="#Verdana-33" x="127.148438"/>
      </g>
     </g>
    </g>
    <g id="xtick_8">
     <g id="line2d_8">
      <g>
       <use xlink:href="#me767b3beec" x="1010.671364" y="635.94" style="fill: #262626; stroke: #262626; stroke-width: 1.25"/>
      </g>
     </g>
     <g id="text_8">
      <!-- 150 -->
      <g style="fill: #262626" transform="translate(989.690582 662.156562) scale(0.22 -0.22)">
       <use xlink:href="#Verdana-31"/>
       <use xlink:href="#Verdana-35" x="63.574219"/>
       <use xlink:href="#Verdana-30" x="127.148438"/>
      </g>
     </g>
    </g>
    <g id="text_9">
     <!-- Presentation Time (ms) -->
     <g style="fill: #262626" transform="translate(428.563516 689.580156) scale(0.25 -0.25)">
      <defs>
       <path id="Verdana-50" d="M 3669 3247 
Q 3669 2938 3561 2673 
Q 3453 2409 3259 2216 
Q 3019 1975 2691 1854 
Q 2363 1734 1863 1734 
L 1244 1734 
L 1244 0 
L 625 0 
L 625 4653 
L 1888 4653 
Q 2306 4653 2597 4583 
Q 2888 4513 3113 4363 
Q 3378 4184 3523 3918 
Q 3669 3653 3669 3247 
z
M 3025 3231 
Q 3025 3472 2940 3650 
Q 2856 3828 2684 3941 
Q 2534 4038 2342 4080 
Q 2150 4122 1856 4122 
L 1244 4122 
L 1244 2263 
L 1766 2263 
Q 2141 2263 2375 2330 
Q 2609 2397 2756 2544 
Q 2903 2694 2964 2859 
Q 3025 3025 3025 3231 
z
" transform="scale(0.015625)"/>
       <path id="Verdana-72" d="M 2756 2850 
L 2725 2850 
Q 2594 2881 2470 2895 
Q 2347 2909 2178 2909 
Q 1906 2909 1653 2789 
Q 1400 2669 1166 2478 
L 1166 0 
L 578 0 
L 578 3491 
L 1166 3491 
L 1166 2975 
Q 1516 3256 1783 3373 
Q 2050 3491 2328 3491 
Q 2481 3491 2550 3483 
Q 2619 3475 2756 3453 
L 2756 2850 
z
" transform="scale(0.015625)"/>
       <path id="Verdana-65" d="M 3500 1684 
L 928 1684 
Q 928 1363 1025 1123 
Q 1122 884 1291 731 
Q 1453 581 1676 506 
Q 1900 431 2169 431 
Q 2525 431 2886 573 
Q 3247 716 3400 853 
L 3431 853 
L 3431 213 
Q 3134 88 2825 3 
Q 2516 -81 2175 -81 
Q 1306 -81 818 389 
Q 331 859 331 1725 
Q 331 2581 798 3084 
Q 1266 3588 2028 3588 
Q 2734 3588 3117 3175 
Q 3500 2763 3500 2003 
L 3500 1684 
z
M 2928 2134 
Q 2925 2597 2695 2850 
Q 2466 3103 1997 3103 
Q 1525 3103 1245 2825 
Q 966 2547 928 2134 
L 2928 2134 
z
" transform="scale(0.015625)"/>
       <path id="Verdana-73" d="M 3072 1006 
Q 3072 528 2676 222 
Q 2281 -84 1597 -84 
Q 1209 -84 886 8 
Q 563 100 344 209 
L 344 869 
L 375 869 
Q 653 659 993 536 
Q 1334 413 1647 413 
Q 2034 413 2253 538 
Q 2472 663 2472 931 
Q 2472 1138 2353 1244 
Q 2234 1350 1897 1425 
Q 1772 1453 1570 1490 
Q 1369 1528 1203 1572 
Q 744 1694 551 1930 
Q 359 2166 359 2509 
Q 359 2725 448 2915 
Q 538 3106 719 3256 
Q 894 3403 1164 3489 
Q 1434 3575 1769 3575 
Q 2081 3575 2401 3498 
Q 2722 3422 2934 3313 
L 2934 2684 
L 2903 2684 
Q 2678 2850 2356 2964 
Q 2034 3078 1725 3078 
Q 1403 3078 1181 2954 
Q 959 2831 959 2588 
Q 959 2372 1094 2263 
Q 1225 2153 1519 2084 
Q 1681 2047 1882 2009 
Q 2084 1972 2219 1941 
Q 2628 1847 2850 1619 
Q 3072 1388 3072 1006 
z
" transform="scale(0.015625)"/>
       <path id="Verdana-6e" d="M 3497 0 
L 2909 0 
L 2909 1988 
Q 2909 2228 2881 2439 
Q 2853 2650 2778 2769 
Q 2700 2900 2553 2964 
Q 2406 3028 2172 3028 
Q 1931 3028 1668 2909 
Q 1406 2791 1166 2606 
L 1166 0 
L 578 0 
L 578 3491 
L 1166 3491 
L 1166 3103 
Q 1441 3331 1734 3459 
Q 2028 3588 2338 3588 
Q 2903 3588 3200 3247 
Q 3497 2906 3497 2266 
L 3497 0 
z
" transform="scale(0.015625)"/>
       <path id="Verdana-74" d="M 2391 31 
Q 2225 -13 2029 -41 
Q 1834 -69 1681 -69 
Q 1147 -69 869 218 
Q 591 506 591 1141 
L 591 2997 
L 194 2997 
L 194 3491 
L 591 3491 
L 591 4494 
L 1178 4494 
L 1178 3491 
L 2391 3491 
L 2391 2997 
L 1178 2997 
L 1178 1406 
Q 1178 1131 1190 976 
Q 1203 822 1278 688 
Q 1347 563 1467 505 
Q 1588 447 1834 447 
Q 1978 447 2134 489 
Q 2291 531 2359 559 
L 2391 559 
L 2391 31 
z
" transform="scale(0.015625)"/>
       <path id="Verdana-61" d="M 3291 0 
L 2706 0 
L 2706 372 
Q 2628 319 2495 223 
Q 2363 128 2238 72 
Q 2091 0 1900 -48 
Q 1709 -97 1453 -97 
Q 981 -97 653 215 
Q 325 528 325 1013 
Q 325 1409 495 1654 
Q 666 1900 981 2041 
Q 1300 2181 1747 2231 
Q 2194 2281 2706 2306 
L 2706 2397 
Q 2706 2597 2636 2728 
Q 2566 2859 2434 2934 
Q 2309 3006 2134 3031 
Q 1959 3056 1769 3056 
Q 1538 3056 1253 2995 
Q 969 2934 666 2819 
L 634 2819 
L 634 3416 
Q 806 3463 1131 3519 
Q 1456 3575 1772 3575 
Q 2141 3575 2414 3514 
Q 2688 3453 2888 3306 
Q 3084 3163 3187 2934 
Q 3291 2706 3291 2369 
L 3291 0 
z
M 2706 859 
L 2706 1831 
Q 2438 1816 2073 1784 
Q 1709 1753 1497 1694 
Q 1244 1622 1087 1470 
Q 931 1319 931 1053 
Q 931 753 1112 601 
Q 1294 450 1666 450 
Q 1975 450 2231 570 
Q 2488 691 2706 859 
z
" transform="scale(0.015625)"/>
       <path id="Verdana-69" d="M 1209 4075 
L 547 4075 
L 547 4684 
L 1209 4684 
L 1209 4075 
z
M 1172 0 
L 584 0 
L 584 3491 
L 1172 3491 
L 1172 0 
z
" transform="scale(0.015625)"/>
       <path id="Verdana-6f" d="M 3553 1744 
Q 3553 891 3115 397 
Q 2678 -97 1944 -97 
Q 1203 -97 767 397 
Q 331 891 331 1744 
Q 331 2597 767 3092 
Q 1203 3588 1944 3588 
Q 2678 3588 3115 3092 
Q 3553 2597 3553 1744 
z
M 2947 1744 
Q 2947 2422 2681 2751 
Q 2416 3081 1944 3081 
Q 1466 3081 1202 2751 
Q 938 2422 938 1744 
Q 938 1088 1203 748 
Q 1469 409 1944 409 
Q 2413 409 2680 745 
Q 2947 1081 2947 1744 
z
" transform="scale(0.015625)"/>
       <path id="Verdana-20" transform="scale(0.015625)"/>
       <path id="Verdana-54" d="M 3944 4103 
L 2281 4103 
L 2281 0 
L 1663 0 
L 1663 4103 
L 0 4103 
L 0 4653 
L 3944 4653 
L 3944 4103 
z
" transform="scale(0.015625)"/>
       <path id="Verdana-6d" d="M 5672 0 
L 5084 0 
L 5084 1988 
Q 5084 2213 5064 2422 
Q 5044 2631 4978 2756 
Q 4906 2891 4772 2959 
Q 4638 3028 4384 3028 
Q 4138 3028 3891 2904 
Q 3644 2781 3397 2591 
Q 3406 2519 3412 2423 
Q 3419 2328 3419 2234 
L 3419 0 
L 2831 0 
L 2831 1988 
Q 2831 2219 2811 2426 
Q 2791 2634 2725 2759 
Q 2653 2894 2518 2961 
Q 2384 3028 2131 3028 
Q 1891 3028 1648 2909 
Q 1406 2791 1166 2606 
L 1166 0 
L 578 0 
L 578 3491 
L 1166 3491 
L 1166 3103 
Q 1441 3331 1714 3459 
Q 1988 3588 2297 3588 
Q 2653 3588 2901 3438 
Q 3150 3288 3272 3022 
Q 3628 3322 3922 3455 
Q 4216 3588 4550 3588 
Q 5125 3588 5398 3239 
Q 5672 2891 5672 2266 
L 5672 0 
z
" transform="scale(0.015625)"/>
       <path id="Verdana-28" d="M 2447 -1288 
L 1731 -1288 
Q 1178 -653 872 97 
Q 566 847 566 1788 
Q 566 2728 872 3478 
Q 1178 4228 1731 4863 
L 2447 4863 
L 2447 4831 
Q 2194 4603 1964 4304 
Q 1734 4006 1538 3609 
Q 1350 3225 1233 2762 
Q 1116 2300 1116 1788 
Q 1116 1253 1230 809 
Q 1344 366 1538 -34 
Q 1725 -419 1965 -730 
Q 2206 -1041 2447 -1256 
L 2447 -1288 
z
" transform="scale(0.015625)"/>
       <path id="Verdana-29" d="M 2341 1788 
Q 2341 847 2034 97 
Q 1728 -653 1175 -1288 
L 459 -1288 
L 459 -1256 
Q 700 -1041 942 -730 
Q 1184 -419 1369 -34 
Q 1563 366 1677 809 
Q 1791 1253 1791 1788 
Q 1791 2300 1675 2762 
Q 1559 3225 1369 3609 
Q 1172 4006 942 4304 
Q 713 4603 459 4831 
L 459 4863 
L 1175 4863 
Q 1728 4228 2034 3478 
Q 2341 2728 2341 1788 
z
" transform="scale(0.015625)"/>
      </defs>
      <use xlink:href="#Verdana-50"/>
      <use xlink:href="#Verdana-72" x="60.302734"/>
      <use xlink:href="#Verdana-65" x="102.978516"/>
      <use xlink:href="#Verdana-73" x="162.548828"/>
      <use xlink:href="#Verdana-65" x="214.648438"/>
      <use xlink:href="#Verdana-6e" x="274.21875"/>
      <use xlink:href="#Verdana-74" x="337.5"/>
      <use xlink:href="#Verdana-61" x="376.904297"/>
      <use xlink:href="#Verdana-74" x="436.962891"/>
      <use xlink:href="#Verdana-69" x="476.367188"/>
      <use xlink:href="#Verdana-6f" x="503.808594"/>
      <use xlink:href="#Verdana-6e" x="564.501953"/>
      <use xlink:href="#Verdana-20" x="627.783203"/>
      <use xlink:href="#Verdana-54" x="662.939453"/>
      <use xlink:href="#Verdana-69" x="724.560547"/>
      <use xlink:href="#Verdana-6d" x="752.001953"/>
      <use xlink:href="#Verdana-65" x="849.267578"/>
      <use xlink:href="#Verdana-20" x="908.837891"/>
      <use xlink:href="#Verdana-28" x="943.994141"/>
      <use xlink:href="#Verdana-6d" x="989.404297"/>
      <use xlink:href="#Verdana-73" x="1086.669922"/>
      <use xlink:href="#Verdana-29" x="1138.769531"/>
     </g>
    </g>
   </g>
   <g id="matplotlib.axis_2">
    <g id="ytick_1">
     <g id="line2d_9">
      <defs>
       <path id="m2116fad2a8" d="M 0 0 
L -6 0 
" style="stroke: #262626; stroke-width: 1.25"/>
      </defs>
      <g>
       <use xlink:href="#m2116fad2a8" x="99.09" y="608.211818" style="fill: #262626; stroke: #262626; stroke-width: 1.25"/>
      </g>
     </g>
     <g id="text_10">
      <!-- 0.0 -->
      <g style="fill: #262626" transform="translate(53.613125 616.570099) scale(0.22 -0.22)">
       <defs>
        <path id="Verdana-2e" d="M 1538 0 
L 791 0 
L 791 891 
L 1538 891 
L 1538 0 
z
" transform="scale(0.015625)"/>
       </defs>
       <use xlink:href="#Verdana-30"/>
       <use xlink:href="#Verdana-2e" x="63.574219"/>
       <use xlink:href="#Verdana-30" x="99.951172"/>
      </g>
     </g>
    </g>
    <g id="ytick_2">
     <g id="line2d_10">
      <g>
       <use xlink:href="#m2116fad2a8" x="99.09" y="528.141369" style="fill: #262626; stroke: #262626; stroke-width: 1.25"/>
      </g>
     </g>
     <g id="text_11">
      <!-- 0.1 -->
      <g style="fill: #262626" transform="translate(53.613125 536.49965) scale(0.22 -0.22)">
       <use xlink:href="#Verdana-30"/>
       <use xlink:href="#Verdana-2e" x="63.574219"/>
       <use xlink:href="#Verdana-31" x="99.951172"/>
      </g>
     </g>
    </g>
    <g id="ytick_3">
     <g id="line2d_11">
      <g>
       <use xlink:href="#m2116fad2a8" x="99.09" y="448.07092" style="fill: #262626; stroke: #262626; stroke-width: 1.25"/>
      </g>
     </g>
     <g id="text_12">
      <!-- 0.2 -->
      <g style="fill: #262626" transform="translate(53.613125 456.429201) scale(0.22 -0.22)">
       <defs>
        <path id="Verdana-32" d="M 3653 0 
L 503 0 
L 503 653 
Q 831 934 1161 1215 
Q 1491 1497 1775 1775 
Q 2375 2356 2597 2698 
Q 2819 3041 2819 3438 
Q 2819 3800 2580 4004 
Q 2341 4209 1913 4209 
Q 1628 4209 1297 4109 
Q 966 4009 650 3803 
L 619 3803 
L 619 4459 
Q 841 4569 1211 4659 
Q 1581 4750 1928 4750 
Q 2644 4750 3050 4404 
Q 3456 4059 3456 3469 
Q 3456 3203 3389 2973 
Q 3322 2744 3191 2538 
Q 3069 2344 2905 2156 
Q 2741 1969 2506 1741 
Q 2172 1413 1815 1105 
Q 1459 797 1150 534 
L 3653 534 
L 3653 0 
z
" transform="scale(0.015625)"/>
       </defs>
       <use xlink:href="#Verdana-30"/>
       <use xlink:href="#Verdana-2e" x="63.574219"/>
       <use xlink:href="#Verdana-32" x="99.951172"/>
      </g>
     </g>
    </g>
    <g id="ytick_4">
     <g id="line2d_12">
      <g>
       <use xlink:href="#m2116fad2a8" x="99.09" y="368.000471" style="fill: #262626; stroke: #262626; stroke-width: 1.25"/>
      </g>
     </g>
     <g id="text_13">
      <!-- 0.3 -->
      <g style="fill: #262626" transform="translate(53.613125 376.358752) scale(0.22 -0.22)">
       <use xlink:href="#Verdana-30"/>
       <use xlink:href="#Verdana-2e" x="63.574219"/>
       <use xlink:href="#Verdana-33" x="99.951172"/>
      </g>
     </g>
    </g>
    <g id="ytick_5">
     <g id="line2d_13">
      <g>
       <use xlink:href="#m2116fad2a8" x="99.09" y="287.930022" style="fill: #262626; stroke: #262626; stroke-width: 1.25"/>
      </g>
     </g>
     <g id="text_14">
      <!-- 0.4 -->
      <g style="fill: #262626" transform="translate(53.613125 296.288303) scale(0.22 -0.22)">
       <defs>
        <path id="Verdana-34" d="M 3759 1309 
L 3069 1309 
L 3069 0 
L 2469 0 
L 2469 1309 
L 241 1309 
L 241 2028 
L 2494 4653 
L 3069 4653 
L 3069 1809 
L 3759 1809 
L 3759 1309 
z
M 2469 1809 
L 2469 3909 
L 666 1809 
L 2469 1809 
z
" transform="scale(0.015625)"/>
       </defs>
       <use xlink:href="#Verdana-30"/>
       <use xlink:href="#Verdana-2e" x="63.574219"/>
       <use xlink:href="#Verdana-34" x="99.951172"/>
      </g>
     </g>
    </g>
    <g id="ytick_6">
     <g id="line2d_14">
      <g>
       <use xlink:href="#m2116fad2a8" x="99.09" y="207.859573" style="fill: #262626; stroke: #262626; stroke-width: 1.25"/>
      </g>
     </g>
     <g id="text_15">
      <!-- 0.5 -->
      <g style="fill: #262626" transform="translate(53.613125 216.217854) scale(0.22 -0.22)">
       <use xlink:href="#Verdana-30"/>
       <use xlink:href="#Verdana-2e" x="63.574219"/>
       <use xlink:href="#Verdana-35" x="99.951172"/>
      </g>
     </g>
    </g>
    <g id="ytick_7">
     <g id="line2d_15">
      <g>
       <use xlink:href="#m2116fad2a8" x="99.09" y="127.789124" style="fill: #262626; stroke: #262626; stroke-width: 1.25"/>
      </g>
     </g>
     <g id="text_16">
      <!-- 0.6 -->
      <g style="fill: #262626" transform="translate(53.613125 136.147405) scale(0.22 -0.22)">
       <use xlink:href="#Verdana-30"/>
       <use xlink:href="#Verdana-2e" x="63.574219"/>
       <use xlink:href="#Verdana-36" x="99.951172"/>
      </g>
     </g>
    </g>
    <g id="ytick_8">
     <g id="line2d_16">
      <g>
       <use xlink:href="#m2116fad2a8" x="99.09" y="47.718675" style="fill: #262626; stroke: #262626; stroke-width: 1.25"/>
      </g>
     </g>
     <g id="text_17">
      <!-- 0.7 -->
      <g style="fill: #262626" transform="translate(53.613125 56.076956) scale(0.22 -0.22)">
       <use xlink:href="#Verdana-30"/>
       <use xlink:href="#Verdana-2e" x="63.574219"/>
       <use xlink:href="#Verdana-37" x="99.951172"/>
      </g>
     </g>
    </g>
    <g id="text_18">
     <!-- Sensitivity (d') -->
     <g style="fill: #262626" transform="translate(44.581875 423.111641) rotate(-90) scale(0.25 -0.25)">
      <defs>
       <path id="Verdana-53" d="M 4006 1328 
Q 4006 1056 3879 790 
Q 3753 525 3525 341 
Q 3275 141 2942 28 
Q 2609 -84 2141 -84 
Q 1638 -84 1236 9 
Q 834 103 419 288 
L 419 1063 
L 463 1063 
Q 816 769 1278 609 
Q 1741 450 2147 450 
Q 2722 450 3042 665 
Q 3363 881 3363 1241 
Q 3363 1550 3211 1697 
Q 3059 1844 2750 1925 
Q 2516 1988 2242 2028 
Q 1969 2069 1663 2131 
Q 1044 2263 745 2580 
Q 447 2897 447 3406 
Q 447 3991 940 4364 
Q 1434 4738 2194 4738 
Q 2684 4738 3093 4644 
Q 3503 4550 3819 4413 
L 3819 3681 
L 3775 3681 
Q 3509 3906 3076 4054 
Q 2644 4203 2191 4203 
Q 1694 4203 1392 3997 
Q 1091 3791 1091 3466 
Q 1091 3175 1241 3009 
Q 1391 2844 1769 2756 
Q 1969 2713 2337 2650 
Q 2706 2588 2963 2522 
Q 3481 2384 3743 2106 
Q 4006 1828 4006 1328 
z
" transform="scale(0.015625)"/>
       <path id="Verdana-76" d="M 3597 3491 
L 2184 0 
L 1594 0 
L 191 3491 
L 828 3491 
L 1909 713 
L 2981 3491 
L 3597 3491 
z
" transform="scale(0.015625)"/>
       <path id="Verdana-79" d="M 3597 3491 
L 1559 -1288 
L 931 -1288 
L 1581 169 
L 191 3491 
L 828 3491 
L 1900 903 
L 2981 3491 
L 3597 3491 
z
" transform="scale(0.015625)"/>
       <path id="Verdana-64" d="M 3409 0 
L 2822 0 
L 2822 366 
Q 2569 147 2294 25 
Q 2019 -97 1697 -97 
Q 1072 -97 705 384 
Q 338 866 338 1719 
Q 338 2163 464 2509 
Q 591 2856 806 3100 
Q 1019 3338 1301 3463 
Q 1584 3588 1888 3588 
Q 2163 3588 2375 3530 
Q 2588 3472 2822 3350 
L 2822 4863 
L 3409 4863 
L 3409 0 
z
M 2822 859 
L 2822 2863 
Q 2584 2969 2396 3009 
Q 2209 3050 1988 3050 
Q 1494 3050 1219 2706 
Q 944 2363 944 1731 
Q 944 1109 1156 786 
Q 1369 463 1838 463 
Q 2088 463 2344 573 
Q 2600 684 2822 859 
z
" transform="scale(0.015625)"/>
       <path id="Verdana-27" d="M 1206 4863 
L 1072 3053 
L 647 3053 
L 513 4863 
L 1206 4863 
z
" transform="scale(0.015625)"/>
      </defs>
      <use xlink:href="#Verdana-53"/>
      <use xlink:href="#Verdana-65" x="68.359375"/>
      <use xlink:href="#Verdana-6e" x="127.929688"/>
      <use xlink:href="#Verdana-73" x="191.210938"/>
      <use xlink:href="#Verdana-69" x="243.310547"/>
      <use xlink:href="#Verdana-74" x="270.751953"/>
      <use xlink:href="#Verdana-69" x="310.15625"/>
      <use xlink:href="#Verdana-76" x="337.597656"/>
      <use xlink:href="#Verdana-69" x="396.777344"/>
      <use xlink:href="#Verdana-74" x="424.21875"/>
      <use xlink:href="#Verdana-79" x="463.123047"/>
      <use xlink:href="#Verdana-20" x="522.302734"/>
      <use xlink:href="#Verdana-28" x="557.458984"/>
      <use xlink:href="#Verdana-64" x="602.869141"/>
      <use xlink:href="#Verdana-27" x="665.173828"/>
      <use xlink:href="#Verdana-29" x="692.029297"/>
     </g>
    </g>
   </g>
   <g id="PolyCollection_1">
    <defs>
     <path id="m688bdac01b" d="M 142.498636 -417.87352 
L 142.498636 -216.846611 
L 268.643392 -471.867796 
L 394.788147 -321.324575 
L 513.512622 -398.016528 
L 765.802133 -270.981679 
L 1010.671364 -238.512859 
L 1010.671364 -585.831505 
L 1010.671364 -585.831505 
L 765.802133 -586.451041 
L 513.512622 -666.351818 
L 394.788147 -544.603099 
L 268.643392 -609.985281 
L 142.498636 -417.87352 
z
" style="stroke: #4c72b0; stroke-opacity: 0.2"/>
    </defs>
    <g clip-path="url(#pccfbf831a5)">
     <use xlink:href="#m688bdac01b" x="0" y="720" style="fill: #4c72b0; fill-opacity: 0.2; stroke: #4c72b0; stroke-opacity: 0.2"/>
    </g>
   </g>
   <g id="line2d_17">
    <path d="M 142.498636 402.639934 
L 268.643392 179.073462 
L 394.788147 287.036163 
L 513.512622 187.815827 
L 765.802133 291.28364 
L 1010.671364 307.827818 
" clip-path="url(#pccfbf831a5)" style="fill: none; stroke: #4c72b0; stroke-width: 3.5; stroke-linecap: round"/>
   </g>
   <g id="line2d_18">
    <path d="M 99.09 608.211818 
L 1054.08 608.211818 
" clip-path="url(#pccfbf831a5)" style="fill: none; stroke-dasharray: 11.1,4.8; stroke-dashoffset: 0; stroke: #808080; stroke-width: 3"/>
   </g>
   <g id="patch_3">
    <path d="M 99.09 635.94 
L 99.09 25.92 
" style="fill: none; stroke: #262626; stroke-width: 1.25; stroke-linejoin: miter; stroke-linecap: square"/>
   </g>
   <g id="patch_4">
    <path d="M 99.09 635.94 
L 1054.08 635.94 
" style="fill: none; stroke: #262626; stroke-width: 1.25; stroke-linejoin: miter; stroke-linecap: square"/>
   </g>
  </g>
 </g>
 <defs>
  <clipPath id="pccfbf831a5">
   <rect x="99.09" y="25.92" width="954.99" height="610.02"/>
  </clipPath>
 </defs>
</svg>
